<svg xmlns="http://www.w3.org/2000/svg" preserveAspectRatio="xMinYMin" viewBox="0 0 512 512">
  <style>
    @media (prefers-color-scheme: dark) {
      .plus {
        fill: #FAFBFC;
      }
    }
  </style>
  <path class="plus" fill="#111111" d="M148 256q0 6.6 4.8 11.4 4.6 4.6 11.2 4.6h24v24q0 6.6 4.8 11.4 4.6 4.6 11.2 4.6t11.4-4.6q4.6-4.8 4.6-11.4v-24h24q6.6 0 11.4-4.6 4.6-4.8 4.6-11.4 0-6.6-4.6-11.2-4.8-4.8-11.4-4.8h-24v-24q0-6.6-4.6-11.2-4.8-4.8-11.4-4.8-6.6 0-11.2 4.8-4.8 4.6-4.8 11.2v24h-24q-6.6 0-11.2 4.8-4.8 4.6-4.8 11.2Z"/>
  <path class="line" fill="#EE4411" d="M363.4 136.6q1.8-6.4-1.4-12.2-3.2-6-9.4-7.8-6.4-1.8-12.2 1.4-6 3.2-7.8 9.6l-72 248q-1.8 6.2 1.4 12.2 3.2 5.8 9.6 7.6 6.2 1.8 12.2-1.4 5.8-3.2 7.6-9.4l72-248Z"/>
</svg>
